<svg xmlns="http://www.w3.org/2000/svg" viewBox="0 0 1200 720" fill="none">
  <defs>
    <linearGradient id="cardGrad" x1="0%" y1="0%" x2="0%" y2="100%">
      <stop offset="0%" stop-color="#111111"/>
      <stop offset="100%" stop-color="#090909"/>
    </linearGradient>
    <linearGradient id="alertGrad" x1="0%" y1="0%" x2="100%" y2="100%">
      <stop offset="0%" stop-color="#ff4444" stop-opacity="0.08"/>
      <stop offset="100%" stop-color="#ff4444" stop-opacity="0.01"/>
    </linearGradient>
    <linearGradient id="clarityGrad" x1="0%" y1="0%" x2="100%" y2="100%">
      <stop offset="0%" stop-color="#81d8d0" stop-opacity="0.05"/>
      <stop offset="100%" stop-color="#81d8d0" stop-opacity="0.01"/>
    </linearGradient>
    <linearGradient id="decisionGrad" x1="0%" y1="0%" x2="0%" y2="100%">
      <stop offset="0%" stop-color="#81d8d0" stop-opacity="0.1"/>
      <stop offset="100%" stop-color="#81d8d0" stop-opacity="0.02"/>
    </linearGradient>
    <linearGradient id="progressLine" x1="0%" y1="0%" x2="100%" y2="0%">
      <stop offset="0%" stop-color="#ff4444" stop-opacity="0.2"/>
      <stop offset="35%" stop-color="#81d8d0" stop-opacity="0.1"/>
      <stop offset="65%" stop-color="#81d8d0" stop-opacity="0.2"/>
      <stop offset="100%" stop-color="#81d8d0" stop-opacity="0.4"/>
    </linearGradient>
    <filter id="glowAccent">
      <feGaussianBlur stdDeviation="8" result="blur"/>
      <feMerge>
        <feMergeNode in="blur"/>
        <feMergeNode in="SourceGraphic"/>
      </feMerge>
    </filter>
  </defs>

  <!-- Background -->
  <rect width="1200" height="720" fill="#060606" rx="14"/>

  <!-- Subtle dot grid -->
  <g opacity="0.04">
    <circle cx="100" cy="100" r="0.8" fill="#fff"/><circle cx="200" cy="100" r="0.8" fill="#fff"/><circle cx="300" cy="100" r="0.8" fill="#fff"/><circle cx="400" cy="100" r="0.8" fill="#fff"/><circle cx="500" cy="100" r="0.8" fill="#fff"/><circle cx="600" cy="100" r="0.8" fill="#fff"/><circle cx="700" cy="100" r="0.8" fill="#fff"/><circle cx="800" cy="100" r="0.8" fill="#fff"/><circle cx="900" cy="100" r="0.8" fill="#fff"/><circle cx="1000" cy="100" r="0.8" fill="#fff"/><circle cx="1100" cy="100" r="0.8" fill="#fff"/>
    <circle cx="100" cy="200" r="0.8" fill="#fff"/><circle cx="200" cy="200" r="0.8" fill="#fff"/><circle cx="300" cy="200" r="0.8" fill="#fff"/><circle cx="400" cy="200" r="0.8" fill="#fff"/><circle cx="500" cy="200" r="0.8" fill="#fff"/><circle cx="600" cy="200" r="0.8" fill="#fff"/><circle cx="700" cy="200" r="0.8" fill="#fff"/><circle cx="800" cy="200" r="0.8" fill="#fff"/><circle cx="900" cy="200" r="0.8" fill="#fff"/><circle cx="1000" cy="200" r="0.8" fill="#fff"/><circle cx="1100" cy="200" r="0.8" fill="#fff"/>
    <circle cx="100" cy="400" r="0.8" fill="#fff"/><circle cx="200" cy="400" r="0.8" fill="#fff"/><circle cx="300" cy="400" r="0.8" fill="#fff"/><circle cx="400" cy="400" r="0.8" fill="#fff"/><circle cx="500" cy="400" r="0.8" fill="#fff"/><circle cx="600" cy="400" r="0.8" fill="#fff"/><circle cx="700" cy="400" r="0.8" fill="#fff"/><circle cx="800" cy="400" r="0.8" fill="#fff"/><circle cx="900" cy="400" r="0.8" fill="#fff"/><circle cx="1000" cy="400" r="0.8" fill="#fff"/><circle cx="1100" cy="400" r="0.8" fill="#fff"/>
    <circle cx="100" cy="600" r="0.8" fill="#fff"/><circle cx="200" cy="600" r="0.8" fill="#fff"/><circle cx="300" cy="600" r="0.8" fill="#fff"/><circle cx="400" cy="600" r="0.8" fill="#fff"/><circle cx="500" cy="600" r="0.8" fill="#fff"/><circle cx="600" cy="600" r="0.8" fill="#fff"/><circle cx="700" cy="600" r="0.8" fill="#fff"/><circle cx="800" cy="600" r="0.8" fill="#fff"/><circle cx="900" cy="600" r="0.8" fill="#fff"/><circle cx="1000" cy="600" r="0.8" fill="#fff"/><circle cx="1100" cy="600" r="0.8" fill="#fff"/>
  </g>


  <!-- ==================== HEADER ==================== -->
  <text x="600" y="52" fill="#ffffff" font-family="system-ui, -apple-system, sans-serif" font-size="13" font-weight="500" text-anchor="middle" opacity="0.3" letter-spacing="4">FROM OPERATION TO DECISION</text>
  <text x="600" y="86" fill="#ffffff" font-family="system-ui, -apple-system, sans-serif" font-size="22" font-weight="600" text-anchor="middle" opacity="0.85" letter-spacing="0.3">Turning scattered signals into clearer decisions</text>


  <!-- ==================== PROGRESS BAR (bottom, integrated) ==================== -->
  <line x1="60" y1="668" x2="1140" y2="668" stroke="url(#progressLine)" stroke-width="1"/>
  <!-- Stage markers -->
  <circle cx="200" cy="668" r="4" fill="#ff4444" opacity="0.2"/>
  <circle cx="600" cy="668" r="4" fill="#81d8d0" opacity="0.2"/>
  <circle cx="1000" cy="668" r="5" fill="#81d8d0" opacity="0.35"/>
  <!-- Labels -->
  <text x="200" y="698" fill="#ff6b6b" font-family="system-ui, sans-serif" font-size="10" text-anchor="middle" opacity="0.35" letter-spacing="3" font-weight="500">NOISE</text>
  <text x="600" y="698" fill="#81d8d0" font-family="system-ui, sans-serif" font-size="10" text-anchor="middle" opacity="0.3" letter-spacing="3" font-weight="500">CLARITY</text>
  <text x="1000" y="698" fill="#81d8d0" font-family="system-ui, sans-serif" font-size="10" text-anchor="middle" opacity="0.45" letter-spacing="3" font-weight="500">ACTION</text>


  <!-- ==================== STAGE 1: OPERATIONS ==================== -->
  <g transform="translate(56, 130)">
    <!-- Card -->
    <rect width="320" height="500" rx="12" fill="url(#cardGrad)" stroke="#1a1a1a" stroke-width="0.75"/>
    <rect width="320" height="500" rx="12" fill="url(#alertGrad)"/>

    <!-- Number -->
    <text x="32" y="48" fill="#ff6b6b" font-family="system-ui, -apple-system, sans-serif" font-size="48" font-weight="700" opacity="0.06">01</text>

    <!-- Stage label -->
    <text x="32" y="50" fill="#ff6b6b" font-family="system-ui, -apple-system, sans-serif" font-size="10" font-weight="600" letter-spacing="3" opacity="0.6">OPERATIONS</text>

    <!-- Title -->
    <text x="32" y="82" fill="#ffffff" font-family="system-ui, -apple-system, sans-serif" font-size="18" font-weight="600" opacity="0.85">Signal overload</text>
    <text x="32" y="104" fill="#a6a6a6" font-family="system-ui, sans-serif" font-size="12" opacity="0.3">Noise, multiple events, low clarity</text>

    <!-- Divider -->
    <line x1="32" y1="124" x2="288" y2="124" stroke="#ffffff" stroke-opacity="0.04" stroke-width="0.5"/>

    <!-- Signal row 1 — critical -->
    <g transform="translate(32, 144)">
      <rect width="256" height="40" rx="6" fill="#ff4444" fill-opacity="0.06" stroke="#ff4444" stroke-opacity="0.12" stroke-width="0.5"/>
      <circle cx="18" cy="20" r="4.5" fill="#ff4444" opacity="0.55"/>
      <rect x="32" y="12" width="110" height="4.5" rx="2" fill="#ffffff" opacity="0.2"/>
      <rect x="32" y="22" width="75" height="3" rx="1.5" fill="#ffffff" opacity="0.06"/>
      <rect x="192" y="13" width="48" height="14" rx="7" fill="#ff4444" fill-opacity="0.05" stroke="#ff4444" stroke-opacity="0.12" stroke-width="0.5"/>
      <text x="216" y="23" fill="#ff4444" font-family="system-ui, sans-serif" font-size="8" font-weight="600" text-anchor="middle" opacity="0.45">CRITICAL</text>
    </g>

    <!-- Signal row 2 — warning -->
    <g transform="translate(32, 196)">
      <rect width="256" height="40" rx="6" fill="#ff8c00" fill-opacity="0.04" stroke="#ff8c00" stroke-opacity="0.08" stroke-width="0.5"/>
      <circle cx="18" cy="20" r="4.5" fill="#ff8c00" opacity="0.45"/>
      <rect x="32" y="12" width="130" height="4.5" rx="2" fill="#ffffff" opacity="0.15"/>
      <rect x="32" y="22" width="55" height="3" rx="1.5" fill="#ffffff" opacity="0.05"/>
      <rect x="192" y="13" width="48" height="14" rx="7" fill="#ff8c00" fill-opacity="0.04" stroke="#ff8c00" stroke-opacity="0.08" stroke-width="0.5"/>
      <text x="216" y="23" fill="#ff8c00" font-family="system-ui, sans-serif" font-size="8" font-weight="600" text-anchor="middle" opacity="0.35">WARNING</text>
    </g>

    <!-- Signal row 3 — critical -->
    <g transform="translate(32, 248)">
      <rect width="256" height="40" rx="6" fill="#ff4444" fill-opacity="0.03" stroke="#ff4444" stroke-opacity="0.08" stroke-width="0.5"/>
      <circle cx="18" cy="20" r="4.5" fill="#ff4444" opacity="0.35"/>
      <rect x="32" y="12" width="95" height="4.5" rx="2" fill="#ffffff" opacity="0.13"/>
      <rect x="32" y="22" width="85" height="3" rx="1.5" fill="#ffffff" opacity="0.05"/>
      <rect x="192" y="13" width="48" height="14" rx="7" fill="#ff4444" fill-opacity="0.03" stroke="#ff4444" stroke-opacity="0.08" stroke-width="0.5"/>
      <text x="216" y="23" fill="#ff4444" font-family="system-ui, sans-serif" font-size="8" font-weight="600" text-anchor="middle" opacity="0.3">CRITICAL</text>
    </g>

    <!-- Signal row 4 — info -->
    <g transform="translate(32, 300)">
      <rect width="256" height="40" rx="6" fill="#ffffff" fill-opacity="0.01" stroke="#ffffff" stroke-opacity="0.04" stroke-width="0.5"/>
      <circle cx="18" cy="20" r="4.5" fill="#4f4f4f" opacity="0.25"/>
      <rect x="32" y="12" width="120" height="4.5" rx="2" fill="#ffffff" opacity="0.08"/>
      <rect x="32" y="22" width="65" height="3" rx="1.5" fill="#ffffff" opacity="0.04"/>
      <rect x="192" y="13" width="48" height="14" rx="7" fill="#ffffff" fill-opacity="0.015" stroke="#ffffff" stroke-opacity="0.04" stroke-width="0.5"/>
      <text x="216" y="23" fill="#4f4f4f" font-family="system-ui, sans-serif" font-size="8" font-weight="600" text-anchor="middle" opacity="0.25">INFO</text>
    </g>

    <!-- Signal row 5 — warning -->
    <g transform="translate(32, 352)">
      <rect width="256" height="40" rx="6" fill="#ff8c00" fill-opacity="0.02" stroke="#ff8c00" stroke-opacity="0.05" stroke-width="0.5"/>
      <circle cx="18" cy="20" r="4.5" fill="#ff8c00" opacity="0.25"/>
      <rect x="32" y="12" width="105" height="4.5" rx="2" fill="#ffffff" opacity="0.1"/>
      <rect x="32" y="22" width="80" height="3" rx="1.5" fill="#ffffff" opacity="0.04"/>
      <rect x="192" y="13" width="48" height="14" rx="7" fill="#ff8c00" fill-opacity="0.02" stroke="#ff8c00" stroke-opacity="0.05" stroke-width="0.5"/>
      <text x="216" y="23" fill="#ff8c00" font-family="system-ui, sans-serif" font-size="8" font-weight="600" text-anchor="middle" opacity="0.2">WARNING</text>
    </g>

    <!-- Overflow -->
    <g transform="translate(32, 410)">
      <rect width="256" height="28" rx="6" fill="#ffffff" fill-opacity="0.006" stroke="#ffffff" stroke-opacity="0.03" stroke-width="0.5" stroke-dasharray="4 4"/>
      <text x="128" y="18" fill="#ffffff" opacity="0.1" font-family="system-ui, sans-serif" font-size="10" text-anchor="middle">+47 unread alerts</text>
    </g>

    <!-- Bottom metric -->
    <g transform="translate(32, 458)">
      <text x="0" y="12" fill="#a6a6a6" font-family="system-ui, sans-serif" font-size="9" opacity="0.3">Cognitive load</text>
      <text x="256" y="12" fill="#ff4444" font-family="system-ui, sans-serif" font-size="11" font-weight="700" text-anchor="end" opacity="0.3">92%</text>
      <rect x="0" y="24" width="256" height="3" rx="1.5" fill="#1a1a1a"/>
      <rect x="0" y="24" width="236" height="3" rx="1.5" fill="#ff4444" opacity="0.2"/>
    </g>
  </g>


  <!-- ==================== CONNECTOR 1 ==================== -->
  <g transform="translate(392, 380)">
    <line x1="0" y1="0" x2="56" y2="0" stroke="#81d8d0" stroke-width="0.5" opacity="0.15"/>
    <circle cx="14" cy="0" r="1.5" fill="#81d8d0" opacity="0.1"/>
    <circle cx="28" cy="0" r="1.5" fill="#81d8d0" opacity="0.18"/>
    <circle cx="42" cy="0" r="1.5" fill="#81d8d0" opacity="0.25"/>
    <path d="M50 -4 L56 0 L50 4" stroke="#81d8d0" stroke-width="0.75" fill="none" opacity="0.3"/>
  </g>


  <!-- ==================== STAGE 2: READING ==================== -->
  <g transform="translate(440, 130)">
    <!-- Card -->
    <rect width="320" height="500" rx="12" fill="url(#cardGrad)" stroke="#1a1a1a" stroke-width="0.75"/>
    <rect width="320" height="500" rx="12" fill="url(#clarityGrad)"/>

    <!-- Number -->
    <text x="32" y="48" fill="#81d8d0" font-family="system-ui, -apple-system, sans-serif" font-size="48" font-weight="700" opacity="0.04">02</text>

    <!-- Stage label -->
    <text x="32" y="50" fill="#81d8d0" font-family="system-ui, -apple-system, sans-serif" font-size="10" font-weight="600" letter-spacing="3" opacity="0.45">READING THE SCENARIO</text>

    <!-- Title -->
    <text x="32" y="82" fill="#ffffff" font-family="system-ui, -apple-system, sans-serif" font-size="18" font-weight="600" opacity="0.88">Organization and hierarchy</text>
    <text x="32" y="104" fill="#a6a6a6" font-family="system-ui, sans-serif" font-size="12" opacity="0.3">Filtering, prioritization and context</text>

    <!-- Divider -->
    <line x1="32" y1="124" x2="288" y2="124" stroke="#ffffff" stroke-opacity="0.04" stroke-width="0.5"/>

    <!-- Category: High priority -->
    <g transform="translate(32, 144)">
      <rect width="256" height="28" rx="5" fill="#81d8d0" fill-opacity="0.04"/>
      <circle cx="14" cy="14" r="3.5" fill="#81d8d0" opacity="0.45"/>
      <text x="26" y="18" fill="#81d8d0" font-family="system-ui, sans-serif" font-size="10" font-weight="600" opacity="0.55">High priority</text>
      <text x="244" y="18" fill="#81d8d0" font-family="system-ui, sans-serif" font-size="9" text-anchor="end" opacity="0.25">2</text>
    </g>

    <!-- Sorted item 1 -->
    <g transform="translate(32, 184)">
      <rect width="256" height="40" rx="6" fill="#ffffff" fill-opacity="0.018" stroke="#81d8d0" stroke-opacity="0.08" stroke-width="0.5"/>
      <rect x="14" y="12" width="3" height="16" rx="1.5" fill="#81d8d0" opacity="0.4"/>
      <rect x="28" y="13" width="120" height="4.5" rx="2" fill="#ffffff" opacity="0.2"/>
      <rect x="28" y="23" width="85" height="3" rx="1.5" fill="#ffffff" opacity="0.06"/>
    </g>

    <!-- Sorted item 2 -->
    <g transform="translate(32, 236)">
      <rect width="256" height="40" rx="6" fill="#ffffff" fill-opacity="0.012" stroke="#81d8d0" stroke-opacity="0.06" stroke-width="0.5"/>
      <rect x="14" y="12" width="3" height="16" rx="1.5" fill="#81d8d0" opacity="0.25"/>
      <rect x="28" y="13" width="100" height="4.5" rx="2" fill="#ffffff" opacity="0.16"/>
      <rect x="28" y="23" width="75" height="3" rx="1.5" fill="#ffffff" opacity="0.05"/>
    </g>

    <!-- Category: Monitor -->
    <g transform="translate(32, 296)">
      <rect width="256" height="28" rx="5" fill="#ffffff" fill-opacity="0.015"/>
      <circle cx="14" cy="14" r="3.5" fill="#a6a6a6" opacity="0.2"/>
      <text x="26" y="18" fill="#a6a6a6" font-family="system-ui, sans-serif" font-size="10" font-weight="600" opacity="0.35">Monitor</text>
      <text x="244" y="18" fill="#a6a6a6" font-family="system-ui, sans-serif" font-size="9" text-anchor="end" opacity="0.15">3</text>
    </g>

    <!-- Sorted item 3 -->
    <g transform="translate(32, 336)">
      <rect width="256" height="36" rx="6" fill="#ffffff" fill-opacity="0.008" stroke="#ffffff" stroke-opacity="0.03" stroke-width="0.5"/>
      <rect x="14" y="10" width="3" height="14" rx="1.5" fill="#a6a6a6" opacity="0.12"/>
      <rect x="28" y="12" width="90" height="4" rx="2" fill="#ffffff" opacity="0.08"/>
      <rect x="28" y="21" width="65" height="3" rx="1.5" fill="#ffffff" opacity="0.04"/>
    </g>

    <!-- Impact summary -->
    <g transform="translate(32, 396)">
      <line x1="0" y1="0" x2="256" y2="0" stroke="#ffffff" stroke-opacity="0.04" stroke-width="0.5"/>

      <!-- Eyebrow -->
      <text x="0" y="28" fill="#81d8d0" font-family="system-ui, -apple-system, sans-serif" font-size="9" font-weight="600" letter-spacing="2" opacity="0.4">OUTCOME</text>

      <!-- Primary metric -->
      <text x="0" y="72" fill="#81d8d0" font-family="system-ui, -apple-system, sans-serif" font-size="28" font-weight="700" letter-spacing="-1" opacity="0.55">−85%</text>
      <text x="0" y="90" fill="#a6a6a6" font-family="system-ui, sans-serif" font-size="11" font-weight="400" opacity="0.3">visual noise eliminated</text>
    </g>
  </g>


  <!-- ==================== CONNECTOR 2 ==================== -->
  <g transform="translate(776, 380)">
    <line x1="0" y1="0" x2="56" y2="0" stroke="#81d8d0" stroke-width="0.5" opacity="0.2"/>
    <circle cx="14" cy="0" r="1.5" fill="#81d8d0" opacity="0.15"/>
    <circle cx="28" cy="0" r="1.5" fill="#81d8d0" opacity="0.25"/>
    <circle cx="42" cy="0" r="1.5" fill="#81d8d0" opacity="0.35"/>
    <path d="M50 -4 L56 0 L50 4" stroke="#81d8d0" stroke-width="0.75" fill="none" opacity="0.4"/>
  </g>


  <!-- ==================== STAGE 3: DECISION ==================== -->
  <g transform="translate(824, 130)">
    <!-- Subtle glow behind card -->
    <rect x="-4" y="-4" width="328" height="508" rx="14" fill="#81d8d0" opacity="0.015"/>

    <!-- Card -->
    <rect width="320" height="500" rx="12" fill="url(#cardGrad)" stroke="#81d8d0" stroke-opacity="0.12" stroke-width="0.75"/>
    <rect width="320" height="500" rx="12" fill="url(#decisionGrad)"/>

    <!-- Number -->
    <text x="32" y="48" fill="#81d8d0" font-family="system-ui, -apple-system, sans-serif" font-size="48" font-weight="700" opacity="0.06">03</text>

    <!-- Stage label -->
    <text x="32" y="50" fill="#81d8d0" font-family="system-ui, -apple-system, sans-serif" font-size="10" font-weight="600" letter-spacing="3" opacity="0.6">DECISION</text>

    <!-- Title -->
    <text x="32" y="82" fill="#ffffff" font-family="system-ui, -apple-system, sans-serif" font-size="18" font-weight="600" opacity="0.92">Clear and confident decision</text>
    <text x="32" y="104" fill="#a6a6a6" font-family="system-ui, sans-serif" font-size="12" opacity="0.3">Focus, confidence and objective action</text>

    <!-- Divider -->
    <line x1="32" y1="124" x2="288" y2="124" stroke="#81d8d0" stroke-opacity="0.06" stroke-width="0.5"/>

    <!-- Focused decision card -->
    <g transform="translate(32, 144)">
      <rect width="256" height="96" rx="8" fill="#81d8d0" fill-opacity="0.04" stroke="#81d8d0" stroke-opacity="0.12" stroke-width="0.5"/>

      <!-- Badge -->
      <rect x="16" y="16" width="64" height="22" rx="11" fill="#81d8d0" fill-opacity="0.08" stroke="#81d8d0" stroke-opacity="0.18" stroke-width="0.5"/>
      <text x="48" y="31" fill="#81d8d0" font-family="system-ui, sans-serif" font-size="9" font-weight="600" text-anchor="middle" opacity="0.65">IN FOCUS</text>

      <!-- Content -->
      <rect x="16" y="50" width="160" height="5" rx="2.5" fill="#ffffff" opacity="0.22"/>
      <rect x="16" y="62" width="125" height="3.5" rx="1.5" fill="#ffffff" opacity="0.08"/>
      <rect x="16" y="74" width="90" height="3" rx="1.5" fill="#ffffff" opacity="0.04"/>

      <!-- Check circle -->
      <circle cx="230" cy="50" r="16" fill="#81d8d0" fill-opacity="0.05" stroke="#81d8d0" stroke-opacity="0.18" stroke-width="0.5"/>
      <path d="M224 50 L228 54 L236 46" stroke="#81d8d0" stroke-width="1.5" fill="none" opacity="0.5" stroke-linecap="round" stroke-linejoin="round"/>
    </g>

    <!-- Context panel -->
    <g transform="translate(32, 260)">
      <rect width="256" height="60" rx="6" fill="#ffffff" fill-opacity="0.012" stroke="#ffffff" stroke-opacity="0.04" stroke-width="0.5"/>
      <text x="16" y="22" fill="#a6a6a6" font-family="system-ui, sans-serif" font-size="9" font-weight="600" letter-spacing="1.5" opacity="0.3">CONTEXT</text>
      <rect x="16" y="34" width="180" height="4" rx="2" fill="#ffffff" opacity="0.08"/>
      <rect x="16" y="44" width="135" height="3" rx="1.5" fill="#ffffff" opacity="0.04"/>
    </g>

    <!-- Action buttons -->
    <g transform="translate(32, 340)">
      <rect width="122" height="40" rx="8" fill="#81d8d0" fill-opacity="0.07" stroke="#81d8d0" stroke-opacity="0.22" stroke-width="0.5"/>
      <text x="61" y="24" fill="#81d8d0" font-family="system-ui, sans-serif" font-size="11" font-weight="600" text-anchor="middle" opacity="0.65">Take action</text>

      <rect x="134" width="122" height="40" rx="8" fill="#ffffff" fill-opacity="0.012" stroke="#ffffff" stroke-opacity="0.05" stroke-width="0.5"/>
      <text x="195" y="24" fill="#a6a6a6" font-family="system-ui, sans-serif" font-size="11" text-anchor="middle" opacity="0.3">Escalate</text>
    </g>

    <!-- Confidence -->
    <g transform="translate(32, 410)">
      <text x="0" y="12" fill="#a6a6a6" font-family="system-ui, sans-serif" font-size="9" opacity="0.3">Decision confidence</text>
      <text x="256" y="12" fill="#81d8d0" font-family="system-ui, sans-serif" font-size="11" font-weight="700" text-anchor="end" opacity="0.5">90%</text>
      <rect x="0" y="24" width="256" height="3" rx="1.5" fill="#1a1a1a"/>
      <rect x="0" y="24" width="230" height="3" rx="1.5" fill="#81d8d0" opacity="0.3"/>
    </g>

    <!-- Response time -->
    <g transform="translate(32, 452)">
      <text x="0" y="12" fill="#a6a6a6" font-family="system-ui, sans-serif" font-size="9" opacity="0.3">Response time</text>
      <text x="256" y="12" fill="#81d8d0" font-family="system-ui, sans-serif" font-size="11" font-weight="700" text-anchor="end" opacity="0.5">3× faster</text>
      <rect x="0" y="24" width="256" height="3" rx="1.5" fill="#1a1a1a"/>
      <rect x="0" y="24" width="195" height="3" rx="1.5" fill="#81d8d0" opacity="0.2"/>
    </g>
  </g>
</svg>